<?xml version="1.0" standalone="no"?>
<!DOCTYPE svg PUBLIC "-//W3C//DTD SVG 20010904//EN"
 "http://www.w3.org/TR/2001/REC-SVG-20010904/DTD/svg10.dtd">
<svg version="1.0" xmlns="http://www.w3.org/2000/svg"
 width="1024.000000pt" height="1024.000000pt" viewBox="0 0 1024.000000 1024.000000"
 preserveAspectRatio="xMidYMid meet">
<metadata>
Created by potrace 1.14, written by Peter Selinger 2001-2017
</metadata>
<g transform="translate(0.000000,1024.000000) scale(0.100000,-0.100000)"
fill="#000000" stroke="none">
<path d="M4839 9916 c-2 -2 -49 -7 -104 -10 -243 -17 -532 -65 -810 -136 -205
-53 -496 -148 -610 -200 -11 -5 -78 -34 -150 -65 -227 -99 -480 -237 -705
-388 -97 -65 -320 -227 -346 -252 -6 -5 -33 -28 -60 -50 -516 -424 -971 -1007
-1263 -1617 -132 -276 -255 -614 -324 -893 -30 -120 -43 -178 -72 -325 -8 -41
-28 -169 -40 -260 -46 -351 -42 -919 10 -1275 165 -1126 698 -2125 1541 -2890
568 -516 1261 -889 2014 -1084 154 -40 273 -66 347 -76 21 -3 47 -8 59 -10 24
-5 147 -23 209 -31 22 -2 54 -7 70 -9 180 -27 860 -27 1026 0 13 2 65 8 114
15 529 65 1069 233 1560 485 1093 561 1927 1510 2337 2660 53 151 56 157 93
285 52 181 124 520 140 659 3 30 8 64 10 75 4 22 10 78 23 231 9 117 9 624 -1
740 -12 154 -25 259 -53 430 -80 503 -279 1068 -541 1534 -118 211 -373 588
-457 677 -6 7 -27 31 -46 55 -186 232 -512 545 -776 744 -43 33 -81 63 -84 66
-14 16 -370 245 -475 304 -491 280 -1103 490 -1650 565 -122 17 -135 18 -205
25 -36 4 -78 9 -95 12 -36 5 -681 14 -686 9z"/>
</g>
</svg>
